<svg xmlns="http://www.w3.org/2000/svg" id="a" viewBox="0 0 5192 5192">
    <defs>
        <style>
            .b {
                fill: #a7786d;
            }

            .c {
                fill: #528559;
            }

            .d {
                fill: none;
            }
        </style>
    </defs>
    <rect class="d" width="5192" height="5192" />
    <path class="c"
        d="M3846.543,823.284c143.846,159.931,249.338,404.49,264.54,620.704,11.08,157.575-36.634,322.301-4.766,476.195,31.848,153.794,91.647,305.106,169.866,439.039,51.625,88.396,132.779,167.789,118.411,279.688-2.657,20.689-20.813,54.207-40.601,62.452-5.817,2.424-27.652,4.979-35.169,5.441-50.443,3.104-96.333-11.111-140.535,28.139-22.791,20.237-43.327,81.27-38.852,110.642,7.853,51.54,67.433,99.01,50.763,160.401-3.141,11.567-11.667,30.904-19.604,39.72-4.885,5.426-14.883,6.472-15.809,15.558-1.967,19.312,19.891,34.472,24.3,50.632,5.267,19.303,7.88,51.076-5.444,67.103-28.087,33.784-73.487,48.329-101.661,83.48-29.853,37.247-26.244,77.119-23.316,123.375,4.886,77.213,32.968,139.397,14.797,220.905-24.815,111.309-103.461,133.895-207.079,130.487-109.965-3.617-213.192-49.047-316.947-79.746-105.493-31.213-231.4-66.272-342.045-60.844-146.841,7.204-328.223,108.594-385.087,248.924-88.331,217.981,10.63,507.844,94.543,712.628,33.354,81.399,110.945,258.202,123.367,266.965-22.586,9.222-73.869-22.407-92.656-32.282-301.54-158.491-531.801-463.191-614.215-794.208-93.53-375.666,103.719-691.198,353.798-946.94,109.48-111.959,233.117-210.666,355.931-306.163,88.489-68.806,166.684-121.966,243.931-205.793,161.066-174.786,222.026-418.798,115.985-640.388-51.447-107.506-145.043-218.456-256.545-268.116-203.729-90.737-431.4-90.224-618.744,37.262-37.646,25.618-56.317,50.453-88.746,79.9-10.632,9.654-23.592,16.711-32.852,28.011-22.514-49.167-13.167-107.599-22.69-159.994-22.765-125.243-54.904-222.358-130.426-325.475-31.676-43.25-66.812-74.077-109.599-105.89-213.552-158.782-500.905-156.1-739.109-55.471-222.906,94.167-571.986,538.67-579.144,536.129-.706-.251,184.813-480.149,331.424-652.573,145.863-171.545,402.527-369.43,604.792-466.441,19.771-9.482,44.047-16.873,66.621-27.081,190.128-85.978,408.711-131.399,617.534-153.988,210.396-22.76,414.771-10.379,620.266,34.968,216.359,47.744,451.629,147.218,633.34,275.563,53.915,38.081,113.409,98.137,157.433,147.084Z" />
    <path class="b"
        d="M1883.771,2400.87c20.043-6.708,34.215-21.277,50.204-32.529,29.176-20.532,54.781-43.184,83.909-62.879,108.195-73.156,201.762-109.575,327.484-144.145,120.484-33.13,294.179-.644,378.709,94.383,59.772,67.195,84.148,137.216,74.936,227.862-.97,9.54-23.056,64.653-28.517,74.529-62.844,113.657-161.223,197.642-256.837,280.313-187.322,161.966-321.212,332.868-402.558,568.647-12.737,36.917-29.319,78.262-40.793,115.335-23.728,76.663-31.127,163.365-45.224,242.034-24.241,135.281-7.928,289.463,8.368,424.07,7.86,64.923,7.911,97.777,14.31,135.561,21.769,128.545,62.953,228.958,94.971,294.477-70.417-34.948-158.507-82.721-255.992-146.042-27.651-17.96-98.619-63.308-187.509-134.177-135.304-107.875-269.279-224.762-384.052-356.109-101.27-115.895-198.341-253.304-269.294-389.625-60.283-115.822-104.474-234.133-142.948-359.791-57.076-186.413-78.778-383.827-72.097-580.716,3.744-110.335,20.394-219.045,46.07-325.484,12.977-53.799,20.386-122.105,41.409-174.038,4.018-9.925,55.199-148.712,66.321-174.118,38.053-86.922,81.308-161.406,143.097-234.759,38.58-45.801,103.404-101.276,150.128-137.193,114.802-88.249,334.031-175.55,475.853-107.506,77.055,36.97,151.402,94.267,195.708,169.691,22.594,38.463,29.006,66.757,43.502,106.383,4.538,12.406,13.347,19.971,15.504,34.458,6.492,43.608,8.805,214.026-3.802,251.682-12.624,37.702-13.868,68.231-24.9,103.12-22.244,70.349-51.109,139.716-80.333,206.945-2.232,5.133-17.476,27.614-15.627,29.62Z" />
</svg>